<svg width="26" height="26" viewBox="0 0 26 26" fill="none" xmlns="http://www.w3.org/2000/svg">
<path opacity="0.4" d="M11.4375 1.06252C12.3 0.325024 13.7125 0.325024 14.5875 1.06252L16.5625 2.76252C16.9375 3.08752 17.6375 3.35002 18.1375 3.35002H20.2625C21.5875 3.35002 22.675 4.43752 22.675 5.76252V7.88752C22.675 8.37502 22.9375 9.08752 23.2625 9.46252L24.9625 11.4375C25.7 12.3 25.7 13.7125 24.9625 14.5875L23.2625 16.5625C22.9375 16.9375 22.675 17.6375 22.675 18.1375V20.2625C22.675 21.5875 21.5875 22.675 20.2625 22.675H18.1375C17.65 22.675 16.9375 22.9375 16.5625 23.2625L14.5875 24.9625C13.725 25.7 12.3125 25.7 11.4375 24.9625L9.46247 23.2625C9.08747 22.9375 8.38747 22.675 7.88747 22.675H5.72497C4.39997 22.675 3.31248 21.5875 3.31248 20.2625V18.125C3.31248 17.6375 3.04998 16.9375 2.73748 16.5625L1.04998 14.575C0.324976 13.7125 0.324976 12.3125 1.04998 11.45L2.73748 9.46252C3.04998 9.08752 3.31248 8.38752 3.31248 7.90002V5.75002C3.31248 4.42502 4.39997 3.33752 5.72497 3.33752H7.88747C8.37497 3.33752 9.08747 3.07502 9.46247 2.75002L11.4375 1.06252Z" fill="#F07922"/>
<path d="M11.4875 16.9625C11.2375 16.9625 11 16.8625 10.825 16.6875L7.80001 13.6625C7.43751 13.3 7.43751 12.7 7.80001 12.3375C8.16251 11.975 8.76251 11.975 9.12501 12.3375L11.4875 14.7L16.8625 9.32498C17.225 8.96248 17.825 8.96248 18.1875 9.32498C18.55 9.68748 18.55 10.2875 18.1875 10.65L12.15 16.6875C11.975 16.8625 11.7375 16.9625 11.4875 16.9625Z" fill="#F07922"/>
</svg>
