<svg width="173" height="68" viewBox="0 0 173 68" fill="none" xmlns="http://www.w3.org/2000/svg">
<path d="M49.032 8.576C49.16 11.2 49.32 14.176 49.512 17.504C49.768 20.832 50.024 24.288 50.28 27.872C50.6 31.392 50.92 34.912 51.24 38.432C51.56 41.952 51.88 45.216 52.2 48.224C53.864 44.96 55.56 41.44 57.288 37.664C59.016 33.888 60.744 29.984 62.472 25.952C64.2 21.92 65.896 17.824 67.56 13.664C69.288 9.504 70.92 5.44 72.456 1.472H88.296C83.304 13.632 78.216 25.216 73.032 36.224C67.848 47.168 62.28 57.76 56.328 68H42.312C41.8 64.48 41.32 61.12 40.872 57.92C40.488 54.656 40.104 51.456 39.72 48.32C39.4 45.184 39.08 42.016 38.76 38.816C38.504 35.616 38.248 32.288 37.992 28.832C34.344 35.616 30.728 42.272 27.144 48.8C23.624 55.264 19.848 61.664 15.816 68H1.8C1.288 62.048 0.904001 56.16 0.648 50.336C0.456001 44.512 0.360001 38.592 0.360001 32.576C0.360001 27.392 0.456001 22.24 0.648 17.12C0.840001 11.936 1.096 6.72 1.416 1.472H16.488C16.168 7.104 15.848 12.64 15.528 18.08C15.272 23.456 15.144 29.056 15.144 34.88C15.144 37.056 15.144 39.264 15.144 41.504C15.144 43.744 15.208 45.984 15.336 48.224C17.128 45.088 19.016 41.76 21 38.24C22.984 34.72 24.936 31.2 26.856 27.68C28.776 24.16 30.6 20.768 32.328 17.504C34.056 14.176 35.528 11.2 36.744 8.576H49.032ZM97.9485 1.472H112.925L96.8925 68H82.0125L97.9485 1.472ZM146.191 0.703997C150.223 0.703997 153.839 1.152 157.039 2.048C160.303 2.88 163.055 4.128 165.295 5.792C167.535 7.392 169.263 9.376 170.479 11.744C171.695 14.112 172.303 16.768 172.303 19.712C172.303 24.512 171.375 28.576 169.519 31.904C167.663 35.232 165.103 37.92 161.839 39.968C158.575 42.016 154.735 43.488 150.319 44.384C145.903 45.28 141.103 45.728 135.919 45.728H132.175L126.799 68H111.919L127.567 2.432C131.023 1.792 134.287 1.344 137.359 1.088C140.495 0.831997 143.439 0.703997 146.191 0.703997ZM144.943 13.28C143.855 13.28 142.927 13.312 142.159 13.376C141.391 13.44 140.623 13.504 139.855 13.568L135.247 33.152H138.991C141.679 33.152 144.111 32.96 146.287 32.576C148.527 32.128 150.415 31.424 151.951 30.464C153.551 29.504 154.767 28.288 155.599 26.816C156.495 25.28 156.943 23.424 156.943 21.248C156.943 18.368 155.887 16.32 153.775 15.104C151.727 13.888 148.783 13.28 144.943 13.28Z" fill="#FDB541"/>
</svg>
